Coordinates
version=1
nRows=17
nColumns=40
inDegrees=yes

Units are S.I. units (second, meters, Newtons, ...)
Angles are in degrees.

endheader
time	pelvis_tilt	pelvis_list	pelvis_rotation	pelvis_tx	pelvis_ty	pelvis_tz	hip_flexion_r	hip_adduction_r	hip_rotation_r	knee_angle_r	knee_angle_r_beta	ankle_angle_r	subtalar_angle_r	mtp_angle_r	hip_flexion_l	hip_adduction_l	hip_rotation_l	knee_angle_l	knee_angle_l_beta	ankle_angle_l	subtalar_angle_l	mtp_angle_l	lumbar_extension	lumbar_bending	lumbar_rotation	arm_flex_r	arm_add_r	arm_rot_r	elbow_flex_r	pro_sup_r	wrist_flex_r	wrist_dev_r	arm_flex_l	arm_add_l	arm_rot_l	elbow_flex_l	pro_sup_l	wrist_flex_l	wrist_dev_l
     21.67500000	     -6.33844758	     -6.41866771	    -12.96511173	      0.95594837	      0.93459568	      0.42158227	     24.44042247	     -2.83420775	     -0.08807155	     24.22248886	     24.22248886	      5.85635632	      6.92581492	     -4.34792621	     11.27968786	     -9.00932392	    -13.88664537	     21.16737499	     21.16737499	     16.55237570	    -14.52649190	      5.48545135	    -10.32470750	      9.63554014	      0.76169011	    -24.07107372	     -9.02628921	    -10.09289292	     30.23516830	     45.97751473	      0.00000000	      0.00000000	     43.27649483	    -25.33252287	     -2.03939396	     58.79206735	     47.36676525	      0.00000000	      0.00000000
     21.69621429	     -6.72127337	     -6.18951705	    -13.52953261	      0.95542764	      0.93390427	      0.42599049	     23.73370166	     -2.54849832	     -1.31168171	     19.86980287	     19.86980287	      7.00741609	     10.37599877	      2.46722791	     10.99237356	     -9.09233103	    -14.48867983	     20.60582990	     20.60582990	     16.20980358	    -14.46878176	      4.22785498	     -9.97899405	      9.38607705	      0.47302281	    -24.87592218	     -9.07498703	     -8.65287066	     31.97601660	     45.80739368	      0.00000000	      0.00000000	     43.90366845	    -26.23953979	     -4.32331865	     62.03896688	     47.59834348	      0.00000000	      0.00000000
     21.71742857	     -6.89487798	     -5.88324024	    -14.03819493	      0.95528771	      0.93303152	      0.43075374	     22.95984976	     -2.25172066	     -2.37911021	     16.24854146	     16.24854146	      7.27333116	     13.12101171	      6.91560686	     10.55247308	     -9.08864797	    -15.21534239	     20.19738642	     20.19738642	     16.07200614	    -14.34548180	      3.47194936	     -9.70760370	      8.96241670	      0.45661053	    -25.19631081	     -9.06631339	     -7.05044712	     32.29879842	     45.70596452	      0.00000000	      0.00000000	     45.05277892	    -26.77349453	     -5.40582272	     64.14797080	     47.72219903	      0.00000000	      0.00000000
     21.73864286	     -7.06869607	     -5.55648961	    -14.44406952	      0.95536462	      0.93180599	      0.43576675	     22.29445134	     -1.86840760	     -3.12213087	     13.29100542	     13.29100542	      6.40539356	     14.88446429	      8.19310922	     10.24609326	     -9.07990375	    -15.70552895	     20.04953963	     20.04953963	     16.26031026	    -14.26812218	      3.23329339	     -9.40970102	      8.58281453	      0.74976924	    -25.33392595	     -8.80929297	     -6.84105278	     32.33671475	     45.69219301	      0.00000000	      0.00000000	     46.44173389	    -27.04113047	     -5.77015000	     65.40462333	     47.78007121	      0.00000000	      0.00000000
     21.75985714	     -7.22748539	     -5.19234613	    -14.78526004	      0.95570941	      0.93047821	      0.44091284	     22.01053862	     -1.56806162	     -3.84444188	     11.63917411	     11.63917411	      6.23319029	     16.26853337	     10.64966792	      9.91371102	     -9.04723656	    -16.26422289	     19.86785339	     19.86785339	     16.22973366	    -14.08889606	      2.30936103	     -9.14292567	      8.17859497	      0.52872713	    -25.14448482	     -8.95063672	     -5.92489274	     32.77105047	     45.63760559	      0.00000000	      0.00000000	     46.64845482	    -27.47920233	     -7.50760232	     68.35121703	     47.94988601	      0.00000000	      0.00000000
     21.78107143	     -7.35214344	     -4.87336065	    -15.03468868	      0.95636671	      0.92920684	      0.44630209	     21.73685913	     -1.21964127	     -4.23153188	     10.55508065	     10.55508065	      5.53609302	     16.89034192	     10.90706422	      9.56097480	     -9.03126895	    -16.59149459	     19.74489799	     19.74489799	     16.43262995	    -14.01969340	      2.14308562	     -8.84190621	      7.87095952	      0.86394123	    -25.00960642	     -8.92773966	     -5.69410323	     32.76435093	     45.62856542	      0.00000000	      0.00000000	     47.48487682	    -27.38546721	     -7.84776337	     69.58025697	     47.99964737	      0.00000000	      0.00000000
     21.80228571	     -7.42628111	     -4.57749295	    -15.22214881	      0.95735780	      0.92806409	      0.45187708	     21.57099674	     -0.91982991	     -4.45990269	     10.19885727	     10.19885727	      4.87731596	     17.12589962	     10.19085837	      9.11185282	     -9.03398145	    -16.96113819	     19.57883435	     19.57883435	     16.62402488	    -13.80723246	      1.92708568	     -8.61723874	      7.59518009	      1.15172818	    -24.75307545	     -9.05315617	     -5.41634932	     32.79039225	     45.61874641	      0.00000000	      0.00000000	     47.74713844	    -27.11199811	     -8.67326353	     71.54590295	     48.08984172	      0.00000000	      0.00000000
     21.82350000	     -7.48695604	     -4.23385377	    -15.32361996	      0.95852901	      0.92694016	      0.45759181	     21.66118619	     -0.75403435	     -4.49208549	     10.64923969	     10.64923969	      4.40825962	     16.90254077	      8.58613513	      8.66853211	     -8.96749063	    -17.17540025	     19.40368524	     19.40368524	     16.80418462	    -13.65553357	      1.82896936	     -8.34807669	      7.30276257	      1.10403698	    -24.27558574	     -9.37531506	     -5.21491613	     32.87823315	     45.61314172	      0.00000000	      0.00000000	     47.71733925	    -27.03075308	     -9.62550997	     73.21883588	     48.18069516	      0.00000000	      0.00000000
     21.84471429	     -7.51209688	     -4.03882444	    -15.28869704	      0.96012113	      0.92601333	      0.46349723	     21.37796380	     -0.47872433	     -4.40858268	     10.75184118	     10.75184118	      2.95016062	     16.40334664	      3.57745589	      8.17260621	     -9.05736665	    -17.28676823	     19.27802051	     19.27802051	     16.99216568	    -13.51543075	      1.82607581	     -8.11857202	      7.18934934	      0.45086350	    -23.38572289	    -10.06636083	     -4.49554198	     32.79112992	     45.59989042	      0.00000000	      0.00000000	     46.45783827	    -27.26075624	    -11.82006201	     76.09874638	     48.35769341	      0.00000000	      0.00000000
     21.86592857	     -7.47778214	     -3.81624980	    -15.22744764	      0.96178037	      0.92541255	      0.46953876	     21.44254012	     -0.35317192	     -4.23640906	     11.84320998	     11.84320998	      3.21862618	     15.70088145	      2.42318014	      7.51221309	     -9.06668840	    -17.39497781	     18.92366168	     18.92366168	     17.07548610	    -13.29450242	      1.93468831	     -7.92663648	      7.03316009	      0.71894429	    -22.99472890	    -10.47940743	     -4.35808318	     32.78492682	     45.59981004	      0.00000000	      0.00000000	     46.36876808	    -26.80928909	    -11.95398006	     76.77854008	     48.37495412	      0.00000000	      0.00000000
     21.88714286	     -7.44083417	     -3.68051637	    -15.08474289	      0.96355914	      0.92497534	      0.47579407	     21.43915079	     -0.15811269	     -3.91215715	     12.94077546	     12.94077546	      3.56377042	     14.71371067	      0.80182723	      6.84349397	     -9.19200325	    -17.45586553	     18.59332779	     18.59332779	     17.16021170	    -12.99461542	      2.09980112	     -7.76385440	      6.95070685	      0.82405899	    -22.51888722	    -10.97619294	     -4.28361187	     32.81332556	     45.60419234	      0.00000000	      0.00000000	     45.85803397	    -26.25030253	    -12.48902839	     77.83486907	     48.42169487	      0.00000000	      0.00000000
     21.90835714	     -7.35830166	     -3.69139330	    -14.83875072	      0.96538376	      0.92483527	      0.48223041	     21.13010250	      0.19489708	     -3.43781930	     13.60506535	     13.60506535	      3.24727407	     13.32430128	     -2.42230156	      6.15735993	     -9.51274107	    -17.49968254	     18.37568341	     18.37568341	     17.33296483	    -12.50603820	      2.48471436	     -7.70440267	      7.01156358	      0.27779607	    -21.61948880	    -11.66787160	     -3.98501353	     32.64100380	     45.62006571	      0.00000000	      0.00000000	     44.34273605	    -26.02302976	    -14.30043309	     79.91154975	     48.55296323	      0.00000000	      0.00000000
     21.92957143	     -7.26002992	     -3.66133939	    -14.53438297	      0.96715839	      0.92491946	      0.48868792	     20.98814705	      0.41463693	     -3.24949766	     14.66067459	     14.66067459	      4.03898769	     12.42782991	     -3.05631675	      5.41514933	     -9.75633534	    -17.46255188	     17.98608631	     17.98608631	     17.25198505	    -12.10385357	      2.67771386	     -7.64003680	      7.00508341	      0.40596214	    -21.15978139	    -12.12975799	     -3.97754853	     32.63968579	     45.62767364	      0.00000000	      0.00000000	     43.71581603	    -25.36773023	    -14.34724756	     80.19249754	     48.55348229	      0.00000000	      0.00000000
     21.95078571	     -7.18936252	     -3.71380420	    -14.14981240	      0.96876580	      0.92514960	      0.49523911	     20.74128305	      0.76854036	     -2.88102567	     15.45528734	     15.45528734	      4.76284202	     11.13099868	     -3.56386187	      4.77650589	    -10.16213628	    -17.43638008	     17.73166189	     17.73166189	     17.19749914	    -11.50147496	      2.90979141	     -7.57231980	      7.04568557	      0.35621907	    -20.55000746	    -12.54900803	     -4.00131485	     32.55746589	     45.64464294	      0.00000000	      0.00000000	     42.71931297	    -24.57643622	    -14.89809021	     80.85195012	     48.58864367	      0.00000000	      0.00000000
     21.97200000	     -7.11357113	     -3.79801142	    -13.68409502	      0.97022361	      0.92555697	      0.50176592	     20.36452951	      1.13059615	     -2.67947253	     15.98004548	     15.98004548	      5.45730145	     10.12216894	     -3.84708124	      4.22911944	    -10.65114558	    -17.36728238	     17.60701554	     17.60701554	     17.09605415	    -10.80304119	      3.15334561	     -7.54495636	      7.11108921	      0.18133510	    -19.83351140	    -12.88771217	     -4.05932352	     32.41023717	     45.66743974	      0.00000000	      0.00000000	     41.55387361	    -23.80364128	    -15.51046285	     81.35565228	     48.62323713	      0.00000000	      0.00000000
     21.99321429	     -7.07029235	     -3.93683944	    -13.10270964	      0.97144740	      0.92602384	      0.50815105	     19.91257711	      1.48381586	     -2.99905024	     16.26765022	     16.26765022	      6.09704753	      9.71173159	     -4.07543555	      3.85769499	    -11.21664061	    -17.04134720	     17.63134289	     17.63134289	     16.85328055	    -10.47623287	      3.28680012	     -7.49422889	      7.23205073	      0.16279783	    -19.28083813	    -13.13913665	     -4.10080316	     32.46331840	     45.67425419	      0.00000000	      0.00000000	     40.45941595	    -22.96820412	    -15.40163510	     81.21602893	     48.60422936	      0.00000000	      0.00000000
     22.01442857	     -7.03581966	     -4.06846312	    -12.51883112	      0.97247522	      0.92656473	      0.51453195	     19.42554511	      1.90126217	     -3.05141730	     16.40611423	     16.40611423	      6.74686095	      8.90080062	     -3.88834837	      3.66277631	    -11.92073311	    -17.05165520	     17.98491390	     17.98491390	     16.93032361	     -9.42899963	      3.83179365	     -7.42336790	      7.29004320	     -0.54250406	    -17.70015088	    -13.27465583	     -4.18227857	     31.09750044	     45.77137051	      0.00000000	      0.00000000	     38.52411459	    -22.26669936	    -17.03373077	     82.20009483	     48.68876157	      0.00000000	      0.00000000
